<svg class="loaderImage" x="0px" y="0px" viewBox="0 0 366 366" enable-background="new 0 0 366 366" xml:space="preserve">
<defs>
</defs>
<circle fill="#848484" cx="183.144" cy="183.143" r="183.144"/>
<polygon fill="#FFFFFF" points="197,150.288 193.537,150.288 180.287,169.789 167.038,150.288 163,150.288 163,190.288 167,190.288 
	167,162.479 178.625,178.288 181.893,178.288 193,162.479 193,190.288 197,190.288 "/>
<polygon fill="#FFFFFF" points="74,190.288 80,190.288 80,162.479 91.164,178.288 94.433,178.288 106,162.479 106,190.288 
	110,190.288 110,150.288 106.077,150.288 92.827,169.789 79.578,150.288 74,150.288 "/>
<path fill="#FFFFFF" d="M241.999,181.063c2.58-2.639,4.243-6.252,4.243-10.382s-1.663-7.743-4.243-10.382
	c-2.696-2.696-6.423-4.359-10.382-4.359c-3.958,0-7.63,1.663-10.268,4.359c-2.639,2.639-4.302,6.31-4.302,10.382
	s1.663,7.743,4.302,10.382c2.638,2.696,6.31,4.359,10.268,4.359C235.576,185.421,239.303,183.758,241.999,181.063z"/>
<path fill="#FFFFFF" d="M308.152,120.165c-4.873-5.231-11.358-2.601-17.512-6.097c-12.016-6.826-23.848-16.162-38.532-21.542
	c-1.848-0.676-4.324-1.285-6.324-1.572c-4.219-0.599-9.663,1.979-13.656,0.926c-4.19-1.107-9.322-8.08-13.784-10.138
	c-0.583-0.269-1.35-0.13-1.244-0.789c-2.409-0.599-4.818-1.196-7.225-1.795c-9.028,0.907-16.689,3.963-25.514,0.703
	c-3.791-1.403-6.762-4.076-10.844-4.614c-9.156-1.202-24.571,2.841-32.16,5.919c-4.739,1.921-9.569,1.037-14.325,2.934
	c-8.571,3.419-15.747,3.822-20.972,12.688c-0.302-0.075-0.604-0.149-0.903-0.223c-1.317,0.574-2.634,1.155-4.514,0.795
	c-9.109,1.508-16.078,4.971-17.012,18.036c-3.952-1.458-8.514-1.292-10.945,1.595c-1.733,2.062-1.792,0.671-3.263,2.855
	c-3.871,5.754-13.034,7.125-14.652,14.582c-0.374,1.508-0.748,3.012-1.121,4.517c2.097,5.987-1.333,10.468-5.058,14.569
	c-0.224,0.903-0.451,1.806-0.674,2.71c-1.272,5.118-2.543,10.237-3.813,15.354c-0.3,1.207-0.6,2.411-0.899,3.616
	c-1.067,10.375,3.139,17.573,10.645,22.786c0.269,6.754,1.361,13.008,9.73,14.884c1.504,0.374,3.011,0.748,4.517,1.122
	c1.204,0.298,2.409,0.599,3.613,0.897c0.165-0.998,1.652,0.194,2.37,0.109c-1.013,1.295-1.368,3.684-1.911,5.76
	c0.452,16.117,1.815,21.962,21.164,26.703c2.558,0.636,5.117,1.273,7.677,1.907c9.265,2.202,19.688,2.929,26.868,3.799
	c-6.4,5.053-4.154,11.381-6.966,18.083c-2.583,6.155-8.634,5.581-11.587,10.907c2.064,4.136,3.453,5.979,9.022,8.001
	c3.011,0.748,6.022,1.498,9.035,2.246c0.186-0.326,0.506-0.432,1.015-0.229c10.945-13.718,19.162-26.736,30.068-40.521
	c11.234-4.948,23.633-3.099,28.409-18.772c5.863,7.593,13.028,7.462,24.732,8.541c5.432,0.5,11.167,1.605,15.577,0.992
	c3.172-0.44,6.217-2.893,9.589-3.851c6.239-1.772,12.98-0.686,16.474-2.622c4.724-2.615,7.541-6.008,10.024-10.392
	c4.913,1.353,8.217,0.033,12.756,0.772c1.063-0.578,2.595-0.374,3.95-0.458c1.062-0.577,2.593-0.372,3.95-0.457
	c0.276-0.82,1.599,0.101,2.033-0.457c9.716-2.151,21.296-1.207,22.887-16.853c5.601-0.477,9.078-4.487,11.611-10.062
	c0.971-3.915,1.943-7.83,2.917-11.743C327.604,162.729,322.546,135.612,308.152,120.165z M313,150.288h3.561l-1.398,2.41l0.68,0.127
	L303,174.41v15.878h-7V174.41l-15.059-24.122h6.826l10.956,17.608l10.953-17.608H313 M123,150.288h25v7h-19v10h19v6h-19v11h19v6h-25
	V150.288z M273.084,175.437l12.677,14.851h-7.514L262,173.147v-3.86h8.388c4.876,0,7.287-2.531,7.287-6.029
	c0-3.442-2.411-5.971-7.287-5.971H262v33h-6v-40h14.388c8.719,0,13.078,6.468,13.078,12.833
	C283.466,168.8,279.968,174.23,273.084,175.437z M141.736,244.214l0.423-0.122C142.003,244.187,141.864,244.222,141.736,244.214z
	 M205,197.288L205,197.288L205,197.288h-51v-51.073l0,0v-1.927h51V197.288z M231.617,191.272c-5.621,0-10.782-2.293-14.453-6.08
	c-3.616-3.727-5.967-8.833-5.967-14.512c0-5.677,2.351-10.783,5.967-14.512c3.671-3.729,8.832-6.08,14.453-6.08
	c5.678,0,10.783,2.351,14.512,6.08c3.611,3.729,5.965,8.834,5.965,14.512c0,5.679-2.354,10.785-5.965,14.512
	C242.4,188.979,237.295,191.272,231.617,191.272z M68,197.288V145.3l0,0v-1.012h50v53l0,0l0,0H68z"/>
</svg>
