<svg class="mainLogo" version="1.1" preserveAspectRatio="xMinYMin meet" viewBox="0.382 -0.115 753 581">
<defs>
</defs>
<polygon fill="#848484" points="414.382,202.885 402.442,202.885 367.01,255.036 331.579,202.885 319.382,202.885 319.382,309.885 
	334.382,309.885 334.382,233.851 362.562,275.885 371.305,275.885 399.382,233.851 399.382,309.885 414.382,309.885 "/>
<polygon fill="#848484" points="86.382,309.885 100.382,309.885 100.382,233.851 128.685,275.885 137.428,275.885 166.382,233.851 
	166.382,309.885 180.382,309.885 180.382,202.885 168.565,202.885 133.133,255.036 97.702,202.885 86.382,202.885 "/>
<path fill="#848484" d="M532.036,283.547c6.9-7.056,11.35-16.719,11.35-27.762c0-11.044-4.449-20.707-11.35-27.764
	c-7.211-7.209-17.178-11.656-27.762-11.656c-10.586,0-20.402,4.447-27.457,11.656c-7.055,7.057-11.504,16.873-11.504,27.764
	c0,10.89,4.449,20.706,11.504,27.762c7.055,7.209,16.871,11.658,27.457,11.658C514.858,295.206,524.825,290.756,532.036,283.547z"/>
<path fill="#848484" d="M708.938,120.698c-13.035-13.989-30.377-6.953-46.828-16.301c-32.129-18.259-63.77-43.224-103.041-57.609
	c-4.941-1.809-11.564-3.438-16.908-4.202c-11.283-1.604-25.84,5.291-36.521,2.472c-11.203-2.957-24.926-21.607-36.861-27.11
	c-1.557-0.719-3.609-0.345-3.324-2.109c-6.443-1.6-12.883-3.2-19.324-4.8c-24.139,2.422-44.625,10.597-68.221,1.877
	c-10.139-3.75-18.081-10.898-28.998-12.335c-24.489-3.219-65.709,7.595-85.999,15.826c-12.676,5.14-25.594,2.773-38.312,7.847
	c-22.922,9.144-42.11,10.222-56.082,33.927c-0.806-0.2-1.611-0.4-2.417-0.6c-3.524,1.538-7.041,3.09-12.069,2.131
	c-24.361,4.031-42.994,13.29-45.49,48.229c-10.57-3.897-22.769-3.455-29.272,4.269c-4.636,5.512-4.79,1.791-8.723,7.634
	c-10.354,15.386-34.857,19.053-39.182,38.996c-1,4.027-2,8.05-3,12.076c5.607,16.009-3.561,27.989-13.526,38.96
	c-0.598,2.412-1.2,4.831-1.8,7.249c-3.4,13.685-6.799,27.374-10.2,41.06c-0.8,3.224-1.601,6.445-2.401,9.666
	c-2.856,27.744,8.392,46.993,28.465,60.932c0.714,18.059,3.641,34.785,26.018,39.801c4.025,1,8.052,2,12.079,3
	c3.219,0.799,6.442,1.6,9.662,2.4c0.445-2.668,4.419,0.52,6.337,0.291c-2.709,3.461-3.658,9.848-5.108,15.404
	c1.21,43.096,4.854,58.729,56.592,71.408c6.842,1.701,13.689,3.4,20.532,5.1c24.773,5.885,52.645,7.834,71.852,10.156
	c-17.12,13.512-11.116,30.436-18.633,48.357c-6.903,16.459-23.086,14.924-30.982,29.166c5.517,11.063,9.234,15.988,24.129,21.4
	c8.051,2,16.104,4.002,24.156,6.002c0.497-0.873,1.356-1.154,2.713-0.609c29.271-36.689,51.244-71.496,80.41-108.361
	c30.043-13.23,63.195-8.287,75.968-50.197c15.68,20.305,34.837,19.957,66.137,22.84c14.527,1.338,29.863,4.291,41.658,2.652
	c8.479-1.178,16.625-7.732,25.639-10.299c16.684-4.738,34.713-1.836,44.059-7.008c12.627-6.998,20.162-16.066,26.803-27.789
	c13.137,3.617,21.971,0.088,34.109,2.063c2.844-1.545,6.938-1,10.566-1.227c2.836-1.539,6.93-0.992,10.561-1.221
	c0.74-2.189,4.275,0.271,5.434-1.217c25.984-5.754,56.949-3.23,61.205-45.066c14.979-1.279,24.275-12.002,31.049-26.908
	c2.6-10.469,5.201-20.937,7.801-31.403C760.956,234.518,747.431,162.008,708.938,120.698z M723.382,201.885h8.041l-3.738,6.123
	l-0.074,0.186l-36.229,57.561v44.131h-15v-44.131l-40.211-63.869h18.254l29.297,47.089l29.295-47.089H723.382 M217.382,201.885h65
	v16h-49v30h48v16h-48v30h49v16h-65V201.885z M615.163,269.337l33.898,40.548h-20.094l-39.586-47.505v-7.495h18.572
	c13.039,0,19.48-9.22,19.48-18.577c0-9.203-6.441-18.423-19.48-18.423h-23.572v92h-16v-108h39.572
	c23.314,0,34.973,17.391,34.973,34.417C642.927,251.487,633.569,266.117,615.163,269.337z M263.924,452.421l1.127-0.324
	C264.636,452.351,264.263,452.445,263.924,452.421z M436.382,326.885h-1v-1h-137v-138h-1v-1h139V326.885z M504.274,310.85
	c-15.033,0-28.836-6.135-38.652-16.259c-9.664-9.97-15.955-23.621-15.955-38.806c0-15.186,6.291-28.836,15.955-38.807
	c9.816-9.97,23.619-16.258,38.652-16.258c15.184,0,28.834,6.288,38.805,16.258c9.662,9.971,15.953,23.621,15.953,38.807
	c0,15.185-6.291,28.836-15.953,38.806C533.108,304.715,519.458,310.85,504.274,310.85z M64.382,325.885v-138h-1v-1h139v140h-1v-1
	H64.382z"/>
</svg>
